<?xml version="1.0" encoding="UTF-8" standalone="no"?>
<!DOCTYPE svg PUBLIC "-//W3C//DTD SVG 1.1//EN" "http://www.w3.org/Graphics/SVG/1.1/DTD/svg11.dtd">
<svg width="100%" height="100%" viewBox="0 0 602 111" version="1.1" xmlns="http://www.w3.org/2000/svg" xmlns:xlink="http://www.w3.org/1999/xlink" xml:space="preserve" xmlns:serif="http://www.serif.com/" style="fill-rule:evenodd;clip-rule:evenodd;stroke-linejoin:round;stroke-miterlimit:2;">
    <g id="Ebene-1" serif:id="Ebene 1">
        <g id="g98">
            <path id="path106" d="M39.392,37.598L0.237,43.867C4.608,24.29 19.197,8.577 38.115,2.608L39.392,37.598Z" style="fill:rgb(0,99,221);fill-rule:nonzero;"/>
            <path id="path110" d="M103.312,27.371L56.619,34.845L50.629,0.175C52.093,0.061 53.568,0 55.063,0C75.558,0 93.497,10.979 103.312,27.371" style="fill:rgb(0,99,221);fill-rule:nonzero;"/>
            <path id="path114" d="M42.084,110.858C20.897,105.858 4.35,88.856 0,67.414L40.062,55.774L42.084,110.858Z" style="fill:rgb(161,202,0);fill-rule:nonzero;"/>
            <path id="path118" d="M111.25,56.186C111.25,82.156 93.631,104.023 69.683,110.445L59.27,50.196L107.57,36.156C109.951,42.382 111.25,49.135 111.25,56.186" style="fill:rgb(161,202,0);fill-rule:nonzero;"/>
        </g>
        <g id="text160">
            <path d="M161.222,58.944L161.222,54.348L151.184,54.348L151.184,57.503L157.627,57.503L157.627,59.264C157.627,61.19 157.163,62.8 156.186,63.906C155.506,64.707 154.706,65.307 153.745,65.707C152.825,66.148 152.465,66.348 151.424,66.348C150.504,66.348 149.824,66.188 148.943,65.827C148.103,65.467 147.343,64.987 146.743,64.347C146.302,63.906 145.942,63.386 145.662,62.906C145.382,62.345 145.182,61.745 145.062,60.985C144.942,60.264 144.862,59.904 144.782,58.903C144.782,57.863 144.742,56.584 144.742,55.106C144.742,53.627 144.782,52.907 144.782,51.866C144.93,50.01 144.674,49.081 145.662,47.384C146.423,46.078 147.518,45.102 148.943,44.423C149.824,44.103 150.504,43.903 151.424,43.903C154.412,43.903 157.461,46.311 157.707,49.145L161.222,49.145C161.102,47.905 160.623,46.664 160.063,45.623C159.544,44.583 158.745,43.783 157.906,42.984C157.067,42.265 156.066,41.666 154.946,41.227C153.785,40.827 152.545,40.628 151.184,40.628C148.303,40.628 145.862,41.626 143.903,43.583C143.224,44.263 142.705,44.943 142.385,45.663C141.986,46.384 141.746,47.184 141.586,48.105C141.387,48.985 141.307,49.986 141.267,51.146C141.227,52.267 141.227,53.587 141.227,55.106C141.227,56.624 141.227,57.943 141.267,59.064C141.307,60.224 141.387,61.225 141.586,62.105C141.746,63.026 141.986,63.826 142.385,64.547C142.705,65.267 143.224,65.947 143.903,66.627C144.862,67.586 145.982,68.305 147.183,68.824C148.463,69.343 149.784,69.583 151.184,69.583C152.665,69.583 154.025,69.303 155.346,68.744C156.626,68.225 157.787,67.386 158.785,66.308C159.664,65.387 160.303,64.347 160.663,63.146C161.022,62.025 161.222,60.584 161.222,58.944Z" style="fill:rgb(51,51,51);fill-opacity:0.94;fill-rule:nonzero;"/>
            <path d="M167.667,69.143L185.182,69.143L185.182,65.828L171.142,65.828L171.142,56.303L181.862,56.303L181.862,53.028L171.142,53.028L171.142,44.423L185.182,44.423L185.182,41.148L167.667,41.148L167.667,69.143Z" style="fill:rgb(51,51,51);fill-opacity:0.94;fill-rule:nonzero;"/>
            <path d="M216.222,69.143L216.222,41.108L213.186,41.108L204.144,60.864L194.862,41.108L191.627,41.108L191.627,69.143L195.022,69.143L195.022,48.346L202.504,64.663L205.785,64.663L212.507,49.866L212.507,69.143L216.222,69.143Z" style="fill:rgb(51,51,51);fill-opacity:0.94;fill-rule:nonzero;"/>
            <path d="M224.267,69.143L241.782,69.143L241.782,65.828L227.742,65.828L227.742,56.303L238.462,56.303L238.462,53.028L227.742,53.028L227.742,44.423L241.782,44.423L241.782,41.148L224.267,41.148L224.267,69.143Z" style="fill:rgb(51,51,51);fill-opacity:0.94;fill-rule:nonzero;"/>
            <rect x="248.307" y="41.148" width="3.475" height="27.995" style="fill:rgb(51,51,51);fill-opacity:0.94;"/>
            <path d="M280.182,69.143L280.182,41.148L276.707,41.148L276.707,61.104C276.707,61.744 276.747,62.424 276.787,63.144C276.387,62.384 276.026,61.744 275.626,61.064L263.222,41.148L259.707,41.148L259.707,69.143L263.182,69.143L263.182,49.146C263.182,48.506 263.142,47.787 263.102,47.187C263.462,47.867 263.862,48.546 264.222,49.146L276.827,69.143L280.182,69.143Z" style="fill:rgb(51,51,51);fill-opacity:0.94;fill-rule:nonzero;"/>
            <path d="M308.542,54.905C308.542,55.905 308.542,56.706 308.502,57.786C308.502,58.866 308.422,59.946 308.262,60.987C308.103,62.067 307.823,63.067 307.463,64.027C307.064,64.987 306.505,65.828 305.746,66.587C304.907,67.425 303.866,68.024 302.626,68.464C301.385,68.903 300.025,69.143 298.544,69.143L288.027,69.143L288.027,41.148L298.544,41.148C300.025,41.148 301.385,41.387 302.626,41.827C303.866,42.266 304.907,43.025 305.746,43.863C306.505,44.623 307.064,45.183 307.463,46.103C307.823,46.983 308.103,47.904 308.262,48.904C308.422,49.864 308.502,50.864 308.502,51.864C308.542,52.905 308.542,53.905 308.542,54.905ZM304.947,54.905C304.947,54.025 304.947,53.505 304.907,52.665C304.907,51.784 304.867,50.944 304.747,50.184C304.627,49.384 304.467,48.624 304.186,47.944C303.906,47.263 303.546,46.663 303.066,46.143C302.306,45.383 301.465,44.823 300.545,44.503C299.625,44.223 298.584,44.303 297.464,44.303L291.422,44.303L291.422,65.948L297.464,65.948C298.584,65.948 299.625,65.788 300.545,65.468C301.465,65.187 302.306,64.627 303.066,63.867C303.546,63.347 303.906,62.747 304.186,61.947C304.467,61.227 304.627,60.386 304.747,59.546C304.867,58.666 304.907,57.746 304.907,56.826C304.947,55.905 304.947,55.785 304.947,54.905Z" style="fill:rgb(51,51,51);fill-opacity:0.94;fill-rule:nonzero;"/>
            <path d="M314.947,69.143L332.462,69.143L332.462,65.828L318.422,65.828L318.422,56.303L329.142,56.303L329.142,53.028L318.422,53.028L318.422,44.423L332.462,44.423L332.462,41.148L314.947,41.148L314.947,69.143Z" style="fill:rgb(51,51,51);fill-opacity:0.94;fill-rule:nonzero;"/>
        </g>
        <g id="text4164">
            <path d="M368.73,69.621C374.492,69.621 380.408,66.703 380.408,58.346L380.408,41.146L374.333,41.146L374.333,58.346C374.333,62.466 372.332,63.746 368.73,63.746C365.008,63.746 363.128,62.466 363.128,58.346L363.128,41.146L357.053,41.146L357.053,58.346C357.053,66.863 363.128,69.621 368.73,69.621Z" style="fill:rgb(51,51,51);fill-opacity:0.94;fill-rule:nonzero;"/>
            <path d="M409.168,69.141L409.168,41.146L403.093,41.146L403.093,55.783C403.093,56.223 403.132,57.343 403.212,57.903C402.972,57.303 402.332,56.223 402.052,55.823L391.768,41.146L386.213,41.146L386.213,69.141L392.208,69.141L392.208,54.303C392.208,53.784 392.208,52.864 392.088,52.184C392.408,52.824 393.008,53.943 393.288,54.303L403.852,69.141L409.168,69.141Z" style="fill:rgb(51,51,51);fill-opacity:0.94;fill-rule:nonzero;"/>
            <path d="M427.448,46.981L435.488,46.981L435.488,41.146L413.333,41.146L413.333,46.981L421.373,46.981L421.373,69.141L427.448,69.141L427.448,46.981Z" style="fill:rgb(51,51,51);fill-opacity:0.94;fill-rule:nonzero;"/>
            <path d="M439.653,69.141L459.808,69.141L459.808,63.346L445.728,63.346L445.728,57.581L455.168,57.581L455.168,51.826L445.728,51.826L445.728,46.901L459.768,46.901L459.768,41.146L439.653,41.146L439.653,69.141Z" style="fill:rgb(51,51,51);fill-opacity:0.94;fill-rule:nonzero;"/>
            <path d="M464.453,69.141L470.528,69.141L470.528,59.261L475.93,59.261L481.012,69.141L487.808,69.141L482.572,58.342C485.849,56.983 487.648,53.266 487.648,50.183C487.648,45.342 485.249,41.146 478.091,41.146L464.453,41.146L464.453,69.141ZM470.528,53.506L470.528,46.901L478.171,46.901C480.612,46.901 481.333,48.542 481.333,50.183C481.333,51.945 480.572,53.506 478.171,53.506L470.528,53.506Z" style="fill:rgb(51,51,51);fill-opacity:0.94;fill-rule:nonzero;"/>
            <path d="M496.772,69.141L502.531,69.141L506.29,53.544C506.41,53.264 506.45,52.664 506.53,52.024C506.61,52.664 506.69,53.264 506.77,53.584L510.689,69.141L516.449,69.141L522.488,41.146L516.209,41.146L513.329,56.103C513.209,56.663 513.169,57.063 513.089,57.543C513.009,57.063 512.969,56.623 512.849,56.023L509.25,41.146L503.931,41.146L500.371,55.983C500.251,56.583 500.251,57.023 500.171,57.463C500.091,57.023 500.091,56.583 499.971,56.063L497.052,41.146L490.773,41.146L496.772,69.141Z" style="fill:rgb(51,51,51);fill-opacity:0.94;fill-rule:nonzero;"/>
            <path d="M526.693,69.141L546.848,69.141L546.848,63.346L532.768,63.346L532.768,57.581L542.208,57.581L542.208,51.826L532.768,51.826L532.768,46.901L546.808,46.901L546.808,41.146L526.693,41.146L526.693,69.141Z" style="fill:rgb(51,51,51);fill-opacity:0.94;fill-rule:nonzero;"/>
            <path d="M572.049,56.903L572.049,53.226L561.29,53.226L561.29,58.981L565.492,58.981L565.492,59.381C565.492,60.462 565.212,61.423 564.411,62.224C563.771,62.905 562.77,63.746 561.29,63.746C560.009,63.746 558.648,62.825 558.128,62.144C557.488,61.303 556.808,60.302 556.808,55.104C556.808,49.903 557.488,48.942 558.128,48.102C558.648,47.421 560.009,46.461 561.29,46.461C563.691,46.461 564.811,47.902 565.372,50.063L572.009,50.063C571.329,45.382 568.611,40.626 561.29,40.626C557.848,40.626 555.449,41.745 553.37,43.823C550.373,46.821 550.493,50.824 550.493,55.104C550.493,59.381 550.373,63.385 553.37,66.383C555.449,68.462 557.968,69.581 561.29,69.581C564.411,69.581 566.732,68.901 569.171,66.383C571.329,64.185 572.049,61.503 572.049,56.903Z" style="fill:rgb(51,51,51);fill-opacity:0.94;fill-rule:nonzero;"/>
            <path d="M587.01,69.621C592.851,69.621 597.448,66.463 597.448,61.025C597.448,54.823 591.972,53.063 587.73,51.702C585.129,50.822 582.968,50.142 582.968,48.701C582.968,47.221 584.168,46.421 586.37,46.421C588.891,46.421 590.212,47.701 590.972,49.422L596.408,47.661C595.329,43.703 591.852,40.666 586.69,40.666C580.45,40.666 576.893,44.263 576.893,48.581C576.893,54.423 581.848,55.983 586.049,57.344C588.971,58.264 591.373,59.024 591.373,60.985C591.373,62.905 589.692,63.866 587.17,63.866C584.608,63.866 582.448,62.025 581.209,59.384L575.773,61.425C577.452,66.543 581.569,69.621 587.01,69.621Z" style="fill:rgb(51,51,51);fill-opacity:0.94;fill-rule:nonzero;"/>
        </g>
    </g>
</svg>
