<?xml version="1.0" encoding="UTF-8" standalone="no"?><!DOCTYPE svg PUBLIC "-//W3C//DTD SVG 1.1//EN" "http://www.w3.org/Graphics/SVG/1.1/DTD/svg11.dtd"><svg width="100%" height="100%" viewBox="0 0 42 46" version="1.1" xmlns="http://www.w3.org/2000/svg" xmlns:xlink="http://www.w3.org/1999/xlink" xml:space="preserve" xmlns:serif="http://www.serif.com/" style="fill-rule:evenodd;clip-rule:evenodd;stroke-linejoin:round;stroke-miterlimit:1.41421;"><path d="M33,46l-30,0c-1.7,0 -3,-1.3 -3,-3l0,-34c0,-1.7 1.3,-3 3,-3l30,0c1.7,0 3,1.3 3,3l0,34c0,1.6 -1.4,3 -3,3Zm-29,-4l28,0l0,-32l-28,0l0,32Z" style="fill:#95c04c;fill-rule:nonzero;"/><path d="M40,39c-1.1,0 -2,-0.9 -2,-2l0,-33l-29,0c-1.1,0 -2,-0.9 -2,-2c0,-1.1 0.9,-2 2,-2l29.6,0c1.6,0 3.4,1.2 3.4,3l0,34c0,1.1 -0.9,2 -2,2Z" style="fill:#95c04c;fill-rule:nonzero;"/></svg>