<?xml version="1.0" encoding="UTF-8" standalone="no"?>
<!DOCTYPE svg PUBLIC "-//W3C//DTD SVG 1.1//EN" "http://www.w3.org/Graphics/SVG/1.1/DTD/svg11.dtd">
<svg width="100%" height="100%" viewBox="0 0 512 512" version="1.1" xmlns="http://www.w3.org/2000/svg" xmlns:xlink="http://www.w3.org/1999/xlink" xml:space="preserve" xmlns:serif="http://www.serif.com/" style="fill-rule:evenodd;clip-rule:evenodd;stroke-linejoin:round;stroke-miterlimit:2;">
    <path d="M507.072,285.789C501.896,278.238 494.076,273.203 485.06,271.613C472.685,269.426 460.549,274.355 453.021,283.539L453.021,204.406C453.021,186.055 438.088,171.125 419.736,171.125C415.049,171.125 410.588,172.106 406.537,173.864L406.537,169.094C406.537,150.743 391.604,135.813 373.252,135.813C354.901,135.813 339.971,150.743 339.971,169.094L339.971,173.864C335.92,172.106 331.455,171.125 326.768,171.125C308.416,171.125 293.483,186.055 293.483,204.406L293.483,227.031C289.436,225.277 284.971,224.297 280.284,224.297C271.225,224.297 263.007,227.938 256.999,233.828C250.995,227.938 242.772,224.297 233.718,224.297C229.026,224.297 224.565,225.274 220.515,227.031L220.515,204.41C220.515,186.055 205.585,171.125 187.233,171.125C182.542,171.125 178.081,172.106 174.03,173.864L174.03,169.098C174.03,150.743 159.101,135.813 140.749,135.813C122.394,135.813 107.464,150.747 107.464,169.098L107.464,173.864C103.414,172.106 98.953,171.125 94.261,171.125C75.91,171.125 60.98,186.059 60.98,204.41L60.98,283.539C53.453,274.355 41.316,269.43 28.937,271.613C19.922,273.203 12.105,278.238 6.93,285.789C1.754,293.344 -0.121,302.449 1.648,311.433L13.84,373.257C18.633,397.554 30.433,419.636 47.965,437.12L56.867,445.995C65.465,454.569 70.199,465.972 70.199,478.112L70.199,500L90.199,500L90.199,478.112C90.199,460.62 83.379,444.187 70.992,431.835L62.086,422.956C47.379,408.292 37.48,389.769 33.461,369.39L21.273,307.566C20.547,303.898 21.312,300.179 23.426,297.097C25.539,294.015 28.73,291.957 32.41,291.308C39.547,290.055 46.48,294.578 48.207,301.609L54.504,327.304C55.386,330.906 57.582,333.793 60.48,335.57C60.5,335.586 60.515,335.597 60.535,335.609L60.73,335.726C60.789,335.761 60.843,335.8 60.906,335.836L84.863,350.476C95.964,357.257 102.859,369.554 102.859,382.558C102.859,388.081 107.335,392.558 112.859,392.558C118.382,392.558 122.859,388.081 122.859,382.558C122.859,362.636 112.296,343.804 95.293,333.41L80.957,324.648C80.964,324.468 80.98,324.289 80.98,324.105L80.98,204.406C80.98,197.082 86.937,191.125 94.261,191.125C101.101,191.125 106.742,196.317 107.464,202.965L107.464,292.555C107.464,298.078 111.941,302.554 117.464,302.554C122.988,302.554 127.464,298.078 127.464,292.555L127.464,169.094C127.464,161.77 133.421,155.813 140.749,155.813C148.074,155.813 154.031,161.77 154.031,169.094L154.031,292.555C154.031,298.078 158.507,302.554 164.03,302.554C169.554,302.554 174.03,298.078 174.03,292.555L174.03,202.965C174.753,196.317 180.394,191.125 187.233,191.125C194.558,191.125 200.515,197.082 200.515,204.406L200.433,292.555C200.433,298.074 204.909,302.554 210.433,302.554C215.956,302.554 220.433,298.074 220.433,292.555L220.515,256.133C221.237,249.484 226.882,244.293 233.718,244.293C241.042,244.293 246.999,250.254 246.999,257.578L246.999,358.125C246.999,385.984 236.136,412.159 216.409,431.831C204.022,444.183 197.202,460.62 197.202,478.108L197.202,500L217.202,500L217.202,478.108C217.202,465.972 221.933,454.565 230.53,445.995C241.929,434.628 250.839,421.437 256.999,407.081C263.163,421.437 272.073,434.628 283.471,445.995C292.065,454.565 296.799,465.972 296.799,478.108L296.799,500L316.799,500L316.799,478.108C316.799,460.616 309.979,444.183 297.592,431.831C277.866,412.159 266.999,385.984 266.999,358.125L266.999,257.578C266.999,250.254 272.96,244.293 280.284,244.293C287.12,244.293 292.764,249.488 293.483,256.137L293.565,292.555C293.565,298.074 298.045,302.554 303.565,302.554C309.088,302.554 313.565,298.074 313.565,292.555L313.483,204.406C313.483,197.082 319.444,191.125 326.768,191.125C333.604,191.125 339.248,196.317 339.971,202.965L339.971,292.555C339.971,298.078 344.448,302.554 349.967,302.554C355.49,302.554 359.967,298.078 359.967,292.555L359.967,169.094C359.967,161.77 365.928,155.813 373.252,155.813C380.576,155.813 386.537,161.77 386.537,169.094L386.537,292.996C386.537,298.516 391.014,302.992 396.537,302.992C402.057,302.992 406.537,298.516 406.537,292.996L406.537,202.965C407.256,196.317 412.9,191.125 419.736,191.125C427.06,191.125 433.021,197.082 433.021,204.406L433.021,324.105C433.021,324.289 433.037,324.465 433.045,324.648L418.705,333.41C401.705,343.8 391.143,362.632 391.143,382.558C391.143,388.077 395.619,392.558 401.143,392.558C406.666,392.558 411.143,388.077 411.143,382.558C411.143,369.55 418.037,357.257 429.135,350.476L453.467,335.609C453.521,335.574 453.568,335.535 453.623,335.5C456.47,333.714 458.623,330.859 459.494,327.304L465.795,301.609C467.517,294.574 474.459,290.055 481.588,291.308C485.271,291.957 488.459,294.012 490.572,297.097C492.685,300.179 493.451,303.898 492.728,307.566L480.537,369.386C476.517,389.765 466.619,408.288 451.912,422.956L443.01,431.835C430.623,444.187 423.803,460.62 423.803,478.112L423.803,500L443.803,500L443.803,478.112C443.803,465.972 448.537,454.565 457.131,445.995L466.033,437.116C483.568,419.632 495.369,397.55 500.158,373.257L512.349,311.433C514.123,302.449 512.248,293.344 507.072,285.789Z" style="fill:white;fill-rule:nonzero;"/>
    <path d="M208.983,136.93C229.983,156.868 250.702,170.332 251.573,170.895C253.225,171.961 255.112,172.496 257.003,172.496C258.889,172.496 260.776,171.965 262.428,170.895C263.303,170.332 284.018,156.868 305.018,136.93C334.381,109.055 349.268,82.997 349.268,59.474C349.268,26.681 323.405,0.001 291.62,0.001C279.104,0.001 266.921,4.267 257.003,11.927C247.085,4.267 234.901,0.001 222.386,0.001C190.597,0.001 164.734,26.681 164.734,59.474C164.734,82.997 179.62,109.055 208.983,136.93ZM222.386,20.001C232.765,20.001 242.432,24.337 249.612,32.216C251.507,34.294 257.003,35.478 257.003,35.478C257.003,35.478 262.499,34.294 264.393,32.216C271.569,24.337 281.241,20.001 291.62,20.001C312.381,20.001 329.268,37.708 329.268,59.474C329.268,93.095 281.307,133.489 256.999,150.442C232.686,133.512 184.733,93.157 184.733,59.474C184.733,37.708 201.624,20.001 222.386,20.001Z" style="fill:white;fill-rule:nonzero;"/>
</svg>
